<?xml version="1.0" ?><svg enable-background="new 0 0 512 512" id="Layer_1" version="1.1" viewBox="0 0 512 512" xml:space="preserve" xmlns="http://www.w3.org/2000/svg" xmlns:xlink="http://www.w3.org/1999/xlink"><g><ellipse cx="257.2" cy="148.9" fill="#DD3A33" rx="19.2" ry="12.5"/><path d="M120.6,359V239.7c0-9.9,5.3-19.1,13.9-24L242.9,153c8.6-5,19.2-5,27.7,0l108.4,62.6   c8.6,5,13.9,14.1,13.9,24V359l-136.1-33.7L120.6,359z" fill="#DD3A33"/><linearGradient gradientUnits="userSpaceOnUse" id="SVGID_1_" x1="256.7841" x2="256.7841" y1="350.9477" y2="155.6064"><stop offset="0" style="stop-color:#FFFFFF;stop-opacity:0"/><stop offset="1" style="stop-color:#FFFFFF;stop-opacity:0.8"/></linearGradient><path d="M256.8,318.8l-129.9,32.1V239.7c0-7.6,4.1-14.8,10.7-18.6l108.4-62.6c3.3-1.9,7-2.9,10.7-2.9   c3.8,0,7.5,1,10.7,2.9l108.4,62.6c6.6,3.8,10.7,10.9,10.7,18.6v111.3L256.8,318.8z" fill="url(#SVGID_1_)"/><path d="M138.6,333.2V250c0-9.9,5.3-19.1,13.9-24l90.5-52.2c8.6-5,19.2-5,27.7,0l90.5,52.2c8.6,5,13.9,14.1,13.9,24   v83.2" fill="#FFFFFF"/><path d="M394.9,374.6c-89.6-32.9-188.1-32.9-277.7,0c-8.5,3.1-18.1-0.6-21.5-8.7l0,0c-3.4-8.1,1.3-17.8,10.5-21.2   c96.7-35.5,203-35.5,299.7,0c9.3,3.4,14,13.2,10.5,21.2l0,0C413,373.9,403.3,377.7,394.9,374.6z" fill="#DD3A33"/><linearGradient gradientUnits="userSpaceOnUse" id="SVGID_2_" x1="255.9997" x2="255.9997" y1="369.3957" y2="324.2724"><stop offset="0" style="stop-color:#FFFFFF;stop-opacity:0"/><stop offset="1" style="stop-color:#FFFFFF;stop-opacity:0.8"/></linearGradient><path d="M111,369.4c-4.3,0-8.1-2.3-9.6-6c-0.9-2.1-0.8-4.5,0.2-6.7c1.2-2.8,3.7-5,6.8-6.2   c47.4-17.4,97.1-26.2,147.7-26.2s100.2,8.8,147.7,26.2c3.1,1.1,5.5,3.4,6.8,6.2c1,2.3,1,4.7,0.2,6.7c-1.5,3.6-5.3,6-9.6,6   c-1.4,0-2.7-0.2-4-0.7c-45.3-16.6-92.7-25-141-25s-95.7,8.4-141,25.1C113.7,369.2,112.4,369.4,111,369.4z" fill="url(#SVGID_2_)"/><path d="M326.6,282.9c0,0-124.7,0-127,0s57.6-64.3,57.6-64.3l19.2,14.9l-13.4-3.9l-39.2,46.3" fill="#47633B"/></g></svg>